<svg xmlns="http://www.w3.org/2000/svg" width="1024" height="1024" viewBox="100 100 824 824"><path fill="#ff6b3a" fill-rule="evenodd" d="m487.25 144.83 13.82-38.68h21.86l13.82 38.68 32.82 3.7 22.08-34.64 21.32 4.87 4.87 40.79 31.16 10.9 29.24-28.85 19.7 9.48-4.33 40.86 27.96 17.56 34.93-21.62 17.09 13.63-13.31 38.86 23.35 23.35 38.86-13.31 13.63 17.09-21.62 34.93 17.56 27.96 40.86-4.33 9.48 19.7L853.55 375l10.9 31.16 40.79 4.87 4.87 21.32-34.64 22.08 3.7 32.82 38.68 13.82v21.86l-38.68 13.82-3.7 32.82 34.64 22.08-4.87 21.32-40.79 4.87-10.9 31.16 28.85 29.24-9.48 19.7-40.86-4.33-17.56 27.96 21.62 34.93-13.63 17.09-38.86-13.31-23.35 23.35 13.31 38.86-17.09 13.63-34.93-21.62-27.96 17.56 4.33 40.86-19.7 9.48L649 853.55l-31.16 10.9-4.87 40.79-21.32 4.87-22.08-34.64-32.82 3.7-13.82 38.68h-21.86l-13.82-38.68-32.82-3.7-22.08 34.64-21.32-4.87-4.87-40.79-31.16-10.9-29.24 28.85-19.7-9.48 4.33-40.86-27.96-17.56-34.93 21.62-17.09-13.63 13.31-38.86-23.35-23.35-38.86 13.31-13.63-17.09 21.62-34.93-17.56-27.96-40.86 4.33-9.48-19.7L170.45 649l-10.9-31.16-40.79-4.87-4.87-21.32 34.64-22.08-3.7-32.82-38.68-13.82v-21.86l38.68-13.82 3.7-32.82-34.64-22.08 4.87-21.32 40.79-4.87 10.9-31.16-28.85-29.24 9.48-19.7 40.86 4.33 17.56-27.96-21.62-34.93 13.63-17.09 38.86 13.31 23.35-23.35-13.31-38.86 17.09-13.63 34.93 21.62 27.96-17.56-4.33-40.86 19.7-9.48L375 170.45l31.16-10.9 4.87-40.79 21.32-4.87 22.08 34.64ZM512 217l-11.58.23-11.57.68-11.52 1.13-11.48 1.59-11.4 2.04-11.32 2.48-11.2 2.93-11.09 3.36-10.94 3.79-10.79 4.23-10.61 4.64-10.43 5.05-10.21 5.46-10 5.86-9.75 6.25-9.51 6.62-9.23 6.99-8.96 7.35-8.66 7.69-8.35 8.03-8.03 8.35-7.69 8.66-7.35 8.96-6.99 9.23-6.62 9.51-6.25 9.75-5.86 10-5.46 10.21-5.05 10.43-4.64 10.61-4.23 10.79-3.79 10.94-3.36 11.09-2.93 11.2-2.48 11.32-2.04 11.4-1.59 11.48-1.13 11.52-.68 11.57L217 512l.23 11.58.68 11.57 1.13 11.52 1.59 11.48 2.04 11.4 2.48 11.32 2.93 11.2 3.36 11.09 3.79 10.94 4.23 10.79 4.64 10.61 5.05 10.43 5.46 10.21 5.86 10 6.25 9.75 6.62 9.51 6.99 9.23 7.35 8.96 7.69 8.66 8.03 8.35 8.35 8.03 8.66 7.69 8.96 7.35 9.23 6.99 9.51 6.62 9.75 6.25 10 5.86 10.21 5.46 10.43 5.05 10.61 4.64 10.79 4.23 10.94 3.79 11.09 3.36 11.2 2.93 11.32 2.48 11.4 2.04 11.48 1.59 11.52 1.13 11.57.68L512 807l11.58-.23 11.57-.68 11.52-1.13 11.48-1.59 11.4-2.04 11.32-2.48 11.2-2.93 11.09-3.36 10.94-3.79 10.79-4.23 10.61-4.64 10.43-5.05 10.21-5.46 10-5.86 9.75-6.25 9.51-6.62 9.23-6.99 8.96-7.35 8.66-7.69 8.35-8.03 8.03-8.35 7.69-8.66 7.35-8.96 6.99-9.23 6.62-9.51 6.25-9.75 5.86-10 5.46-10.21 5.05-10.43 4.64-10.61 4.23-10.79 3.79-10.94 3.36-11.09 2.93-11.2 2.48-11.32 2.04-11.4 1.59-11.48 1.13-11.52.68-11.57L807 512l-.23-11.58-.68-11.57-1.13-11.52-1.59-11.48-2.04-11.4-2.48-11.32-2.93-11.2-3.36-11.09-3.79-10.94-4.23-10.79-4.64-10.61-5.05-10.43-5.46-10.21-5.86-10-6.25-9.75-6.62-9.51-6.99-9.23-7.35-8.96-7.69-8.66-8.03-8.35-8.35-8.03-8.66-7.69-8.96-7.35-9.23-6.99-9.51-6.62-9.75-6.25-10-5.86-10.21-5.46-10.43-5.05-10.61-4.64-10.79-4.23-10.94-3.79-11.09-3.36-11.2-2.93-11.32-2.48-11.4-2.04-11.48-1.59-11.52-1.13-11.57-.68zm0-51-.63.01-.63.04-.62.06-.62.09-.62.11-.62.13-.6.16-.6.18-.6.21-.58.23-.58.25-.56.27-.56.3-.54.32-.53.34-.51.36-.51.37-.48.4-.47.42-.45.44-.44.45-.42.47-.4.48-.37.51-.36.51-.34.53-.32.54-.3.56-.27.56-.25.58-.23.58-.21.6-.18.6-.16.6-.13.62-.11.62-.09.62-.06.62-.04.63-.01.63.01.63.04.63.06.62.09.62.11.62.13.62.16.6.18.6.21.6.23.58.25.58.27.56.3.56.32.54.34.53.36.51.37.51.4.48.42.47.44.45.45.44.47.42.48.4.51.37.51.36.53.34.54.32.56.3.56.27.58.25.58.23.6.21.6.18.6.16.62.13.62.11.62.09.62.06.63.04.63.01.63-.01.63-.04.62-.06.62-.09.62-.11.62-.13.6-.16.6-.18.6-.21.58-.23.58-.25.56-.27.56-.3.54-.32.53-.34.51-.36.51-.37.48-.4.47-.42.45-.44.44-.45.42-.47.4-.48.37-.51.36-.51.34-.53.32-.54.3-.56.27-.56.25-.58.23-.58.21-.6.18-.6.16-.6.13-.62.11-.62.09-.62.06-.62.04-.63.01-.63-.01-.63-.04-.63-.06-.62-.09-.62-.11-.62-.13-.62-.16-.6-.18-.6-.21-.6-.23-.58-.25-.58-.27-.56-.3-.56-.32-.54-.34-.53-.36-.51-.37-.51-.4-.48-.42-.47-.44-.45-.45-.44-.47-.42-.48-.4-.51-.37-.51-.36-.53-.34-.54-.32-.56-.3-.56-.27-.58-.25-.58-.23-.6-.21-.6-.18-.6-.16-.62-.13-.62-.11-.62-.09-.62-.06-.63-.04zm330 330-.63.01-.63.04-.62.06-.62.09-.62.11-.62.13-.6.16-.6.18-.6.21-.58.23-.58.25-.56.27-.56.3-.54.32-.53.34-.51.36-.51.37-.48.4-.47.42-.45.44-.44.45-.42.47-.4.48-.37.51-.36.51-.34.53-.32.54-.3.56-.27.56-.25.58-.23.58-.21.6-.18.6-.16.6-.13.62-.11.62-.09.62-.06.62-.04.63-.01.63.01.63.04.63.06.62.09.62.11.62.13.62.16.6.18.6.21.6.23.58.25.58.27.56.3.56.32.54.34.53.36.51.37.51.4.48.42.47.44.45.45.44.47.42.48.4.51.37.51.36.53.34.54.32.56.3.56.27.58.25.58.23.6.21.6.18.6.16.62.13.62.11.62.09.62.06.63.04.63.01.63-.01.63-.04.62-.06.62-.09.62-.11.62-.13.6-.16.6-.18.6-.21.58-.23.58-.25.56-.27.56-.3.54-.32.53-.34.51-.36.51-.37.48-.4.47-.42.45-.44.44-.45.42-.47.4-.48.37-.51.36-.51.34-.53.32-.54.3-.56.27-.56.25-.58.23-.58.21-.6.18-.6.16-.6.13-.62.11-.62.09-.62.06-.62.04-.63.01-.63-.01-.63-.04-.63-.06-.62-.09-.62-.11-.62-.13-.62-.16-.6-.18-.6-.21-.6-.23-.58-.25-.58-.27-.56-.3-.56-.32-.54-.34-.53-.36-.51-.37-.51-.4-.48-.42-.47-.44-.45-.45-.44-.47-.42-.48-.4-.51-.37-.51-.36-.53-.34-.54-.32-.56-.3-.56-.27-.58-.25-.58-.23-.6-.21-.6-.18-.6-.16-.62-.13-.62-.11-.62-.09-.62-.06-.63-.04zm-660 0-.63.01-.63.04-.62.06-.62.09-.62.11-.62.13-.6.16-.6.18-.6.21-.58.23-.58.25-.56.27-.56.3-.54.32-.53.34-.51.36-.51.37-.48.4-.47.42-.45.44-.44.45-.42.47-.4.48-.37.51-.36.51-.34.53-.32.54-.3.56-.27.56-.25.58-.23.58-.21.6-.18.6-.16.6-.13.62-.11.62-.09.62-.06.62-.04.63-.01.63.01.63.04.63.06.62.09.62.11.62.13.62.16.6.18.6.21.6.23.58.25.58.27.56.3.56.32.54.34.53.36.51.37.51.4.48.42.47.44.45.45.44.47.42.48.4.51.37.51.36.53.34.54.32.56.3.56.27.58.25.58.23.6.21.6.18.6.16.62.13.62.11.62.09.62.06.63.04.63.01.63-.01.63-.04.62-.06.62-.09.62-.11.62-.13.6-.16.6-.18.6-.21.58-.23.58-.25.56-.27.56-.3.54-.32.53-.34.51-.36.51-.37.48-.4.47-.42.45-.44.44-.45.42-.47.4-.48.37-.51.36-.51.34-.53.32-.54.3-.56.27-.56.25-.58.23-.58.21-.6.18-.6.16-.6.13-.62.11-.62.09-.62.06-.62.04-.63.01-.63-.01-.63-.04-.63-.06-.62-.09-.62-.11-.62-.13-.62-.16-.6-.18-.6-.21-.6-.23-.58-.25-.58-.27-.56-.3-.56-.32-.54-.34-.53-.36-.51-.37-.51-.4-.48-.42-.47-.44-.45-.45-.44-.47-.42-.48-.4-.51-.37-.51-.36-.53-.34-.54-.32-.56-.3-.56-.27-.58-.25-.58-.23-.6-.21-.6-.18-.6-.16-.62-.13-.62-.11-.62-.09-.62-.06-.63-.04zm495 285.79-.63.01-.63.04-.62.06-.62.09-.62.11-.62.13-.6.16-.6.18-.6.21-.58.23-.58.25-.56.27-.56.3-.54.32-.53.33-.51.36-.51.38-.48.4-.47.42-.45.43-.44.46-.42.47-.4.48-.37.5-.36.52-.34.53-.32.54-.3.55-.27.57-.25.58-.23.58-.21.59-.18.61-.16.6-.13.62-.11.62-.09.62-.06.62-.04.63-.01.63.01.63.04.62.06.63.09.62.11.62.13.61.16.61.18.6.21.6.23.58.25.58.27.56.3.56.32.54.34.53.36.51.37.5.4.49.42.47.44.45.45.44.47.41.48.4.51.38.51.36.53.34.54.32.56.29.56.28.58.25.58.23.6.21.6.18.6.16.62.13.62.11.62.09.62.06.63.04.63.01.63-.01.63-.04.62-.06.62-.09.62-.11.62-.13.6-.16.6-.18.6-.21.58-.23.58-.25.56-.28.56-.29.54-.32.53-.34.51-.36.51-.38.48-.4.47-.41.45-.44.44-.45.42-.47.4-.49.37-.5.36-.51.34-.53.32-.54.3-.56.27-.56.25-.58.23-.58.21-.6.18-.6.16-.61.13-.61.11-.62.09-.62.06-.63.04-.62.01-.63-.01-.63-.04-.63-.06-.62-.09-.62-.11-.62-.13-.62-.16-.6-.18-.61-.21-.59-.23-.58-.25-.58-.27-.57-.3-.55-.32-.54-.34-.53-.36-.52-.37-.5-.4-.48-.42-.47-.44-.46-.45-.43-.47-.42-.48-.4-.51-.38-.51-.36-.53-.33-.54-.32-.56-.3-.56-.27-.58-.25-.58-.23-.6-.21-.6-.18-.6-.16-.62-.13-.62-.11-.62-.09-.62-.06-.63-.04zm-330 0-.63.01-.63.04-.62.06-.62.09-.62.11-.62.13-.6.16-.6.18-.6.21-.58.23-.58.25-.56.27-.56.3-.54.32-.53.33-.51.36-.51.38-.48.4-.47.42-.45.43-.44.46-.42.47-.4.48-.37.5-.36.52-.34.53-.32.54-.3.55-.27.57-.25.58-.23.58-.21.59-.18.61-.16.6-.13.62-.11.62-.09.62-.06.62-.04.63-.01.63.01.63.04.62.06.63.09.62.11.62.13.61.16.61.18.6.21.6.23.58.25.58.27.56.3.56.32.54.34.53.36.51.37.5.4.49.42.47.44.45.45.44.47.41.48.4.51.38.51.36.53.34.54.32.56.29.56.28.58.25.58.23.6.21.6.18.6.16.62.13.62.11.62.09.62.06.63.04.63.01.63-.01.63-.04.62-.06.62-.09.62-.11.62-.13.6-.16.6-.18.6-.21.58-.23.58-.25.56-.28.56-.29.54-.32.53-.34.51-.36.51-.38.48-.4.47-.41.45-.44.44-.45.42-.47.4-.49.37-.5.36-.51.34-.53.32-.54.3-.56.27-.56.25-.58.23-.58.21-.6.18-.6.16-.61.13-.61.11-.62.09-.62.06-.63.04-.62.01-.63-.01-.63-.04-.63-.06-.62-.09-.62-.11-.62-.13-.62-.16-.6-.18-.61-.21-.59-.23-.58-.25-.58-.27-.57-.3-.55-.32-.54-.34-.53-.36-.52-.37-.5-.4-.48-.42-.47-.44-.46-.45-.43-.47-.42-.48-.4-.51-.38-.51-.36-.53-.33-.54-.32-.56-.3-.56-.27-.58-.25-.58-.23-.6-.21-.6-.18-.6-.16-.62-.13-.62-.11-.62-.09-.62-.06-.63-.04z"/><circle cx="512" cy="182" r="6" fill="#ff6b3a"/><circle cx="842" cy="512" r="6" fill="#ff6b3a"/><circle cx="182" cy="512" r="6" fill="#ff6b3a"/><circle cx="677" cy="797.79" r="6" fill="#ff6b3a"/><circle cx="347" cy="797.79" r="6" fill="#ff6b3a"/><path fill="#ff6b3a" fill-rule="evenodd" d="M593.4 563.78q-20.96 27.77-46.28 40.84-25.23 13.06-58.35 13.06-58.17 0-96.19-45.73-37.93-45.83-37.93-116.79 0-71.14 37.93-116.61Q430.6 293 488.77 293q33.12 0 58.35 13.07 25.32 12.97 46.28 41.1v-47.09h102.08v285.57q0 76.59-48.36 116.97Q598.75 743 506.92 743q-29.77 0-57.62-4.54-27.77-4.53-55.81-13.88v-79.13q26.59 15.34 52.09 22.87 25.59 7.53 51.36 7.53 49.91 0 73.14-21.87 23.32-21.87 23.32-68.33zm-66.97-197.64q-31.49 0-49.09 23.32-17.52 23.23-17.52 65.7 0 43.74 16.97 66.24 17.06 22.51 49.64 22.51 31.76 0 49.36-23.23 17.61-23.23 17.61-65.52 0-42.47-17.61-65.7-17.6-23.32-49.36-23.32"/></svg>